<?xml version="1.0" standalone="no"?>
<!DOCTYPE svg PUBLIC "-//W3C//DTD SVG 20010904//EN"
 "http://www.w3.org/TR/2001/REC-SVG-20010904/DTD/svg10.dtd">
<svg version="1.0" xmlns="http://www.w3.org/2000/svg"
 width="500.000000pt" height="181.000000pt" viewBox="0 0 500.000000 181.000000"
 preserveAspectRatio="xMidYMid meet">

<g transform="translate(0.000000,181.000000) scale(0.100000,-0.100000)"
fill="#000000" stroke="none">
<path d="M2864 1181 c-55 -14 -111 -53 -133 -91 -37 -67 -23 -169 30 -219 13
-13 60 -41 104 -63 44 -22 88 -47 98 -56 24 -22 21 -49 -8 -68 -32 -21 -119
-14 -197 16 -29 11 -54 20 -55 20 -2 0 -3 -33 -3 -74 l0 -74 53 -18 c32 -11
84 -18 137 -18 75 -1 92 2 145 29 69 35 101 75 111 142 8 58 -8 114 -45 151
-16 15 -64 45 -107 66 -44 21 -87 45 -96 53 -22 20 -23 59 -2 67 28 11 101 6
144 -9 23 -8 46 -15 50 -15 7 0 63 121 58 125 -2 1 -25 10 -53 19 -57 20 -185
29 -231 17z"/>
<path d="M3250 860 l0 -320 85 0 85 0 0 320 0 320 -85 0 -85 0 0 -320z"/>
<path d="M3534 1143 c13 -21 58 -91 99 -156 l76 -118 -43 -67 c-24 -37 -68
-105 -98 -152 -30 -47 -58 -91 -62 -97 -5 -10 14 -13 87 -13 l95 0 62 100 c33
55 63 100 65 100 2 0 31 -45 65 -100 l62 -100 98 0 99 0 -93 131 c-51 72 -100
143 -109 158 -18 31 -27 13 116 244 l67 107 -98 0 -97 0 -42 -78 c-71 -131
-62 -130 -128 -19 l-57 97 -94 0 -94 0 24 -37z"/>
</g>
</svg>
